<svg id="Layer_1" data-name="Layer 1" xmlns="http://www.w3.org/2000/svg" viewBox="0 0 841.89 343.87"><defs><style>.cls-1{fill:#e94167;}.cls-2{fill:#474646;}.cls-3{fill:#616160;}</style></defs><path class="cls-1" d="M470.79,246.86H343.59a39.56,39.56,0,0,0,16.25,24.69q12.81,9.07,31.88,9.07A64.41,64.41,0,0,0,415,276.71a56.38,56.38,0,0,0,18.91-12.34l25.94,28.12q-23.76,27.19-69.38,27.19-28.44,0-50.32-11.09T306.39,277.8q-11.88-19.68-11.87-44.69,0-24.69,11.72-44.54a82.09,82.09,0,0,1,32.19-30.94q20.46-11.08,45.79-11.09,24.67,0,44.69,10.62a77.68,77.68,0,0,1,31.41,30.48q11.4,19.85,11.41,46.09Q471.73,234.68,470.79,246.86ZM356.71,192.79q-11.25,9.38-13.75,25.63h82.83Q423.27,202.48,412,193t-27.5-9.53Q368,183.42,356.71,192.79Z"/><path class="cls-1" d="M656.75,85.28v231.9H610.18V297.81q-18.12,21.87-52.5,21.87-23.76,0-43-10.62a76.06,76.06,0,0,1-30.16-30.32Q473.61,259,473.6,233.11t10.94-45.63a76.12,76.12,0,0,1,30.16-30.32q19.23-10.62,43-10.62,32.18,0,50.32,20.31V85.28ZM596.74,267q12.19-12.66,12.19-33.91T596.74,199.2q-12.18-12.66-30.63-12.66-18.75,0-30.94,12.66T523,233.11q0,21.25,12.19,33.91t30.94,12.66Q584.56,279.68,596.74,267Z"/><path class="cls-1" d="M804.58,165.13q20.94,18.6,20.94,56.1v96H779.89V296.24q-13.75,23.44-51.26,23.44-19.38,0-33.59-6.56T673.31,295a47.13,47.13,0,0,1-7.5-26.25q0-23.44,17.66-36.88T738,218.42h38.76q0-15.94-9.7-24.53T738,185.29a84.92,84.92,0,0,0-26.41,4.22,69.78,69.78,0,0,0-22,11.41l-17.51-34.07q13.76-9.67,33-15a147.74,147.74,0,0,1,39.53-5.31Q783.65,146.54,804.58,165.13ZM763,281.09a31.74,31.74,0,0,0,13.76-17V246.86H743.32q-30,0-30,19.69a17.52,17.52,0,0,0,7.34,14.85q7.35,5.48,20.16,5.47A42.52,42.52,0,0,0,763,281.09Z"/><path class="cls-2" d="M113.31,85.75c24.19,0,48.38-.06,72.57,0,11.63,0,21,7,23.91,17.48a23.94,23.94,0,0,1-22.67,30.46c-8.5.19-17,.06-25.52.06q-60,0-120,0c-11.53,0-20.62-6.32-23.93-16.37-5.22-15.79,6.14-31.5,23.08-31.6C64.92,85.64,89.12,85.75,113.31,85.75Z"/><path class="cls-3" d="M360.84,93.66a24.74,24.74,0,1,1-24.73-24.78A24.71,24.71,0,0,1,360.84,93.66Z"/><path class="cls-2" d="M94.39,158.76H89.46v57.55q0,39.48,0,78.95c0,9,3.28,16.38,10.92,21.35s16.06,5.49,24.23,1.2c8.65-4.53,12.89-12,12.9-21.77q0-41.87,0-83.73v-5l.12,0V158.83C123.22,158.81,108.8,158.76,94.39,158.76Z"/><path class="cls-1" d="M253.63,188.69c-.91-.86-2.26-1.28-3.77-2.1,2.28-2,3.43-2.9,4.44-3.92,28.45-28.85,37.53-62.74,23.32-100.32C263.22,44.25,233.5,23,192.06,20.1c-26.59-1.82-53.4-.5-80.12-.36a21.39,21.39,0,0,0-16.09,7.53c-6.63,7.42-8.33,15.92-4.32,25s11.6,14.13,21.87,14.2c24.19.17,48.38-.1,72.57.11,18.39.16,32.95,7.91,42.55,23.22,9.72,15.52,10.09,31.92,1.07,47.81s-23.47,24.6-42.3,24.77c-6.66.06-13.31,0-20,.07v47c7.27,0,14.53,0,21.79.29,24.92.92,44.79,19.8,46.32,44.13.87,13.71.27,27.52.43,41.28a32.61,32.61,0,0,0,.83,8.09c3.1,11.52,14.26,18.7,26.37,17.2a23.59,23.59,0,0,0,20.75-23.08c.18-13.24.16-26.49,0-39.74C283.57,230.54,273.6,207.5,253.63,188.69Z"/></svg>