<svg id="Layer_1" data-name="Layer 1" xmlns="http://www.w3.org/2000/svg" viewBox="0 0 226.77 226.77"><defs><style>.cls-1{fill:#e94167;}.cls-2{fill:#474646;}.cls-3{fill:#fff;}</style></defs><rect class="cls-1" x="2.76" y="2.76" width="221.25" height="221.25" rx="25.5"/><path class="cls-2" d="M75.2,74.07c13.35,0,26.7,0,40.05,0,6.42,0,11.61,3.9,13.2,9.65a13.21,13.21,0,0,1-12.51,16.81c-4.69.11-9.39,0-14.08,0q-33.12,0-66.24,0c-6.36,0-11.37-3.49-13.2-9A13.18,13.18,0,0,1,35.16,74.09C48.51,74,61.86,74.07,75.2,74.07Z"/><path class="cls-2" d="M63.73,114.36H61v31.76q0,21.78,0,43.56c0,5,1.81,9,6,11.79a12.55,12.55,0,0,0,13.37.66c4.76-2.5,7.11-6.63,7.12-12q0-23.1,0-46.21c0-.92,0-1.84,0-2.76h.06V114.4Q75.65,114.37,63.73,114.36Z"/><path class="cls-3" d="M152.64,130.87a10.79,10.79,0,0,0-2.08-1.16c1.26-1.1,1.89-1.59,2.45-2.16,15.7-15.92,20.71-34.62,12.87-55.36-7.95-21-24.35-32.78-47.22-34.35-14.67-1-29.47-.28-44.21-.2a11.83,11.83,0,0,0-8.88,4.16c-3.66,4.09-4.59,8.78-2.38,13.79a12.46,12.46,0,0,0,12.07,7.84c13.34.09,26.69,0,40,.06,10.15.09,18.19,4.36,23.48,12.82s5.57,17.61.59,26.38-13,13.57-23.34,13.67c-3.67,0-7.35,0-11,0v25.92c4,0,8,0,12,.16,13.75.51,24.71,10.93,25.56,24.35.48,7.57.15,15.19.23,22.78a18.55,18.55,0,0,0,.46,4.47,13.17,13.17,0,0,0,14.56,9.49,13,13,0,0,0,11.45-12.74c.09-7.31.08-14.62,0-21.93A51,51,0,0,0,152.64,130.87Z"/><path class="cls-2" d="M210.4,37.83a19.59,19.59,0,1,1-19.58-19.62A19.57,19.57,0,0,1,210.4,37.83Z"/></svg>